<svg id="svg" version="1.1" xmlns="http://www.w3.org/2000/svg" xmlns:xlink="http://www.w3.org/1999/xlink" width="400" height="400" viewBox="0, 0, 400,400"><g id="svgg"><path id="path0" d="M209.600 76.447 C 204.744 77.091,197.012 78.042,193.800 78.391 C 171.962 80.766,173.041 80.497,172.439 83.701 C 172.008 85.994,171.483 88.524,169.848 96.200 C 169.519 97.740,169.138 99.720,169.000 100.600 C 168.862 101.480,168.407 103.820,167.988 105.800 C 166.803 111.405,165.717 116.685,164.985 120.400 C 164.616 122.270,163.974 125.229,163.557 126.976 C 163.141 128.723,162.800 130.480,162.800 130.880 C 162.800 131.280,162.445 133.181,162.012 135.104 C 161.578 137.027,160.844 140.400,160.380 142.600 C 159.916 144.800,159.211 148.130,158.812 150.000 C 158.413 151.870,157.868 154.480,157.600 155.800 C 157.333 157.120,156.953 158.722,156.757 159.360 C 156.561 159.998,156.402 160.988,156.404 161.560 C 156.406 162.132,156.059 164.130,155.632 166.000 C 154.468 171.098,153.537 175.913,153.195 178.600 C 153.027 179.920,152.617 182.260,152.283 183.800 C 151.949 185.340,151.256 188.985,150.741 191.900 C 149.500 198.937,148.988 199.000,147.478 192.300 C 146.065 186.035,145.281 182.215,144.996 180.200 C 144.871 179.320,144.505 177.070,144.184 175.200 C 143.862 173.330,143.306 170.090,142.947 168.000 C 142.588 165.910,142.150 163.120,141.973 161.800 C 141.797 160.480,141.464 158.500,141.235 157.400 C 141.005 156.300,140.713 154.500,140.585 153.400 C 140.458 152.300,140.193 150.680,139.997 149.800 C 139.637 148.183,139.498 147.335,137.989 137.600 C 137.529 134.630,136.800 130.220,136.370 127.800 C 135.939 125.380,135.590 122.916,135.594 122.325 C 135.597 121.733,135.336 120.110,135.013 118.718 C 134.690 117.325,134.249 114.749,134.033 112.993 C 133.642 109.812,132.968 105.441,131.814 98.600 C 129.928 87.425,129.600 85.197,129.600 83.557 C 129.600 80.467,129.368 80.360,123.600 80.790 C 120.850 80.995,115.630 81.359,112.000 81.599 C 103.935 82.132,86.720 83.451,80.203 84.035 C 74.783 84.521,74.967 84.392,74.634 87.958 C 74.499 89.411,74.205 92.040,73.981 93.800 C 73.595 96.824,73.375 98.494,72.386 105.900 C 72.158 107.605,71.689 110.800,71.344 113.000 C 70.999 115.200,70.569 118.350,70.389 120.000 C 70.210 121.650,69.787 124.530,69.451 126.400 C 69.115 128.270,68.461 132.230,67.999 135.200 C 67.536 138.170,66.981 141.518,66.764 142.641 C 66.547 143.763,66.031 146.823,65.618 149.441 C 65.204 152.058,64.485 156.360,64.020 159.000 C 63.555 161.640,63.008 164.880,62.806 166.200 C 62.603 167.520,61.872 171.660,61.180 175.400 C 60.488 179.140,59.835 182.740,59.729 183.400 C 59.623 184.060,59.258 186.040,58.917 187.800 C 58.577 189.560,58.172 191.900,58.017 193.000 C 57.727 195.062,56.914 199.380,55.568 206.000 C 55.143 208.090,54.796 210.218,54.798 210.729 C 54.799 211.240,54.461 213.130,54.047 214.929 C 53.633 216.728,52.905 220.360,52.430 223.000 C 50.852 231.775,48.518 244.135,47.785 247.600 C 47.482 249.030,47.122 251.010,46.984 252.000 C 46.847 252.990,46.408 255.240,46.010 257.000 C 45.611 258.760,44.978 262.000,44.603 264.200 C 44.227 266.400,43.578 269.629,43.160 271.376 C 42.742 273.123,42.402 274.923,42.404 275.376 C 42.406 275.829,42.059 277.730,41.632 279.600 C 40.703 283.668,39.621 289.045,39.178 291.800 C 39.001 292.900,38.660 294.610,38.420 295.600 C 38.180 296.590,37.825 298.480,37.632 299.800 C 37.439 301.120,37.006 303.370,36.671 304.800 C 36.106 307.206,35.331 311.007,33.787 318.944 C 32.941 323.290,33.829 324.265,36.807 322.264 C 37.573 321.749,39.280 321.131,40.600 320.891 C 41.920 320.650,44.530 320.087,46.400 319.639 C 48.270 319.191,50.790 318.629,52.000 318.389 C 53.210 318.150,55.280 317.619,56.600 317.209 C 57.920 316.799,59.900 316.351,61.000 316.213 C 62.100 316.075,63.810 315.719,64.800 315.421 C 66.500 314.909,72.376 313.525,75.000 313.018 C 80.670 311.922,81.768 311.421,82.098 309.775 C 82.271 308.909,82.754 306.580,83.169 304.600 C 84.107 300.134,84.670 297.173,85.415 292.800 C 85.733 290.930,86.265 288.516,86.597 287.436 C 86.929 286.356,87.200 284.680,87.200 283.710 C 87.200 282.741,87.380 281.611,87.600 281.199 C 87.821 280.787,88.184 279.044,88.409 277.325 C 88.633 275.606,89.154 272.670,89.566 270.800 C 90.544 266.367,91.487 261.156,91.809 258.400 C 91.951 257.190,92.305 255.210,92.595 254.000 C 92.886 252.790,93.237 250.900,93.376 249.800 C 93.515 248.700,93.881 246.450,94.190 244.800 C 94.498 243.150,95.129 239.640,95.592 237.000 C 96.054 234.360,96.721 230.670,97.074 228.800 C 97.426 226.930,97.844 224.140,98.003 222.600 C 98.162 221.060,98.571 218.630,98.912 217.200 C 99.253 215.770,100.000 211.680,100.572 208.110 C 101.723 200.928,102.098 199.600,102.976 199.600 C 103.963 199.600,104.371 200.915,104.791 205.465 C 105.011 207.849,105.379 210.970,105.608 212.400 C 105.837 213.830,106.190 216.980,106.392 219.400 C 106.593 221.820,106.956 224.970,107.197 226.400 C 107.438 227.830,107.801 230.710,108.004 232.800 C 108.208 234.890,108.571 237.950,108.812 239.600 C 109.053 241.250,109.409 244.130,109.603 246.000 C 109.797 247.870,110.215 251.470,110.532 254.000 C 110.850 256.530,111.326 260.670,111.591 263.200 C 111.856 265.730,112.235 268.880,112.433 270.200 C 112.632 271.520,112.797 273.680,112.800 275.000 C 112.803 276.320,112.980 278.480,113.192 279.800 C 113.405 281.120,113.848 285.530,114.179 289.600 C 116.209 314.633,116.214 314.672,117.161 315.179 C 117.865 315.556,120.552 314.971,122.251 314.071 C 123.099 313.622,127.510 312.526,130.800 311.946 C 132.010 311.733,133.385 311.307,133.856 310.999 C 134.327 310.691,135.677 310.317,136.856 310.168 C 138.035 310.019,139.558 309.671,140.239 309.394 C 140.920 309.118,142.450 308.760,143.639 308.600 C 144.828 308.439,146.160 308.117,146.600 307.883 C 147.040 307.650,148.750 307.239,150.400 306.969 C 154.047 306.374,159.764 305.038,161.400 304.399 C 162.060 304.142,164.209 303.845,166.175 303.739 C 170.822 303.490,170.838 303.468,171.616 296.600 C 172.381 289.842,173.583 281.324,174.016 279.600 C 174.264 278.610,174.618 276.540,174.803 275.000 C 175.148 272.127,176.374 264.225,177.192 259.600 C 177.445 258.170,178.001 255.020,178.428 252.600 C 178.854 250.180,179.202 247.679,179.202 247.042 C 179.201 246.405,179.547 244.335,179.971 242.442 C 180.965 238.006,181.952 232.800,183.618 223.200 C 183.866 221.770,184.413 219.037,184.834 217.126 C 185.255 215.216,185.600 213.286,185.600 212.837 C 185.600 212.388,185.944 210.621,186.365 208.910 C 186.786 207.200,187.326 204.540,187.566 203.000 C 187.992 200.262,188.652 196.619,189.595 191.800 C 189.853 190.480,190.500 187.558,191.032 185.306 C 191.564 183.054,192.000 180.657,192.000 179.979 C 192.000 179.302,192.175 178.420,192.389 178.020 C 192.603 177.620,192.974 175.967,193.214 174.347 C 193.454 172.726,193.825 170.838,194.039 170.151 C 194.253 169.465,194.684 167.485,194.997 165.751 C 196.240 158.858,196.468 157.726,197.000 155.800 C 197.304 154.700,197.743 152.394,197.976 150.675 C 198.209 148.956,198.580 147.210,198.802 146.796 C 199.024 146.382,199.366 144.998,199.561 143.721 C 199.757 142.445,200.393 139.240,200.975 136.600 C 201.556 133.960,202.316 130.450,202.663 128.800 C 203.992 122.472,204.843 118.541,205.217 117.000 C 205.430 116.120,205.759 114.590,205.948 113.600 C 207.036 107.899,207.714 104.670,208.383 102.000 C 208.796 100.350,209.447 97.560,209.830 95.800 C 210.213 94.040,210.858 91.261,211.263 89.625 C 211.668 87.988,212.004 86.188,212.008 85.625 C 212.013 85.061,212.462 83.340,213.007 81.800 C 214.350 77.999,214.206 75.858,212.620 76.051 C 212.389 76.079,211.030 76.257,209.600 76.447 " stroke="none" fill="#d22a32" fill-rule="evenodd"></path><path id="path1" d="M363.800 79.419 C 363.580 79.505,357.370 80.036,350.000 80.599 C 333.085 81.891,326.972 82.504,319.800 83.628 C 318.260 83.869,316.190 84.187,315.200 84.333 C 313.434 84.595,313.390 84.637,312.892 86.600 C 312.089 89.766,310.732 95.619,309.600 100.800 C 309.336 102.010,308.957 103.720,308.759 104.600 C 308.560 105.480,308.202 107.190,307.962 108.400 C 307.722 109.610,307.353 111.410,307.142 112.400 C 306.930 113.390,306.594 115.100,306.394 116.200 C 306.195 117.300,305.859 119.100,305.648 120.200 C 305.152 122.782,304.507 126.376,303.997 129.400 C 303.775 130.720,303.416 132.790,303.200 134.000 C 302.984 135.210,302.624 137.280,302.400 138.600 C 302.176 139.920,301.829 141.900,301.630 143.000 C 301.431 144.100,301.082 146.080,300.854 147.400 C 300.626 148.720,300.251 150.835,300.020 152.100 C 299.332 155.865,298.823 158.672,298.423 160.900 C 295.995 174.415,296.001 174.400,292.931 174.400 C 291.987 174.400,289.997 174.576,288.507 174.792 C 287.018 175.008,284.180 175.377,282.200 175.612 C 277.616 176.158,273.798 176.654,269.976 177.201 C 265.897 177.785,265.693 177.675,266.043 175.088 C 266.426 172.264,267.421 166.780,268.383 162.200 C 268.614 161.100,268.907 159.480,269.032 158.600 C 269.158 157.720,269.416 156.640,269.606 156.200 C 269.795 155.760,270.044 154.770,270.159 154.000 C 270.273 153.230,270.562 151.610,270.800 150.400 C 271.038 149.190,271.327 147.570,271.441 146.800 C 271.556 146.030,271.807 145.040,272.000 144.600 C 272.193 144.160,272.452 143.125,272.575 142.300 C 272.699 141.475,272.901 140.125,273.025 139.300 C 273.148 138.475,273.406 137.440,273.598 137.000 C 273.789 136.560,274.055 135.570,274.188 134.800 C 274.321 134.030,274.613 132.500,274.835 131.400 C 275.058 130.300,275.341 128.724,275.463 127.897 C 275.585 127.071,275.845 126.295,276.042 126.174 C 276.239 126.052,276.400 125.279,276.400 124.456 C 276.400 123.633,276.562 122.789,276.759 122.580 C 276.956 122.371,277.215 121.480,277.333 120.600 C 277.596 118.648,278.025 116.560,279.183 111.600 C 279.671 109.510,280.340 106.540,280.671 105.000 C 281.001 103.460,281.445 101.480,281.657 100.600 C 281.870 99.720,282.204 98.280,282.400 97.400 C 282.729 95.923,282.935 95.070,283.973 90.900 C 284.179 90.075,284.550 88.680,284.799 87.800 C 286.721 80.993,288.020 81.432,270.000 82.798 C 266.810 83.040,261.680 83.417,258.600 83.637 C 255.520 83.857,250.480 84.217,247.400 84.438 C 244.320 84.658,239.609 84.964,236.932 85.119 C 231.037 85.459,231.790 84.587,230.619 92.434 C 229.440 100.344,228.073 109.320,227.549 112.600 C 227.338 113.920,226.978 116.170,226.751 117.600 C 226.523 119.030,226.185 121.100,226.000 122.200 C 225.815 123.300,225.477 125.370,225.249 126.800 C 225.022 128.230,224.639 130.570,224.400 132.000 C 224.161 133.430,223.778 135.770,223.551 137.200 C 223.323 138.630,222.985 140.700,222.800 141.800 C 222.615 142.900,222.268 144.970,222.028 146.400 C 221.788 147.830,221.416 149.990,221.200 151.200 C 220.827 153.294,220.335 156.188,219.605 160.600 C 219.423 161.700,219.084 163.680,218.851 165.000 C 218.084 169.352,217.531 172.572,217.200 174.600 C 216.383 179.617,215.972 181.999,214.410 190.800 C 213.492 195.970,212.216 203.170,211.575 206.800 C 210.935 210.430,210.217 214.390,209.981 215.600 C 209.528 217.922,208.984 220.885,208.400 224.200 C 208.013 226.397,207.476 229.362,206.824 232.900 C 206.591 234.165,206.220 236.190,206.000 237.400 C 205.780 238.610,205.420 240.590,205.200 241.800 C 204.980 243.010,204.620 244.990,204.400 246.200 C 203.957 248.637,203.365 251.856,202.744 255.200 C 202.519 256.410,202.186 258.120,202.003 259.000 C 201.821 259.880,201.460 261.860,201.202 263.400 C 200.944 264.940,200.386 268.000,199.963 270.200 C 199.540 272.400,198.206 279.510,197.000 286.000 C 195.793 292.490,194.630 298.700,194.415 299.800 C 193.674 303.591,193.259 305.808,192.806 308.400 C 192.556 309.830,192.190 311.630,191.992 312.400 C 191.795 313.170,191.538 314.430,191.421 315.200 C 191.305 315.970,191.036 317.672,190.824 318.982 C 190.556 320.631,190.570 321.523,190.868 321.882 C 191.378 322.496,192.650 322.567,193.000 322.000 C 193.136 321.780,193.642 321.594,194.124 321.587 C 194.606 321.580,195.332 321.323,195.739 321.015 C 196.145 320.707,196.737 320.554,197.054 320.676 C 197.371 320.798,197.938 320.626,198.315 320.294 C 199.082 319.619,201.407 319.152,203.766 319.198 C 204.627 319.215,205.887 318.971,206.566 318.657 C 208.565 317.730,210.399 317.449,210.406 318.068 C 210.411 318.501,210.477 318.498,210.757 318.055 C 210.947 317.756,211.800 317.356,212.651 317.168 C 213.503 316.979,215.370 316.549,216.800 316.212 C 218.230 315.875,219.833 315.700,220.362 315.823 C 220.891 315.946,221.431 315.893,221.562 315.706 C 221.927 315.184,230.261 313.216,233.300 312.934 C 234.785 312.797,236.000 312.530,236.000 312.342 C 236.000 312.154,237.080 312.000,238.400 312.000 C 239.733 312.000,240.800 311.822,240.800 311.600 C 240.800 311.380,241.041 311.200,241.336 311.200 C 242.149 311.200,242.989 307.700,245.176 295.200 C 245.426 293.770,246.163 289.900,246.813 286.600 C 247.464 283.300,248.171 279.700,248.384 278.600 C 248.598 277.500,248.880 276.060,249.011 275.400 C 249.142 274.740,249.400 273.390,249.585 272.400 C 249.769 271.410,250.136 269.520,250.400 268.200 C 250.664 266.880,251.042 264.945,251.240 263.900 C 251.438 262.855,251.780 261.100,252.000 260.000 C 252.853 255.735,253.245 253.726,253.600 251.800 C 253.803 250.700,254.163 248.810,254.400 247.600 C 255.205 243.493,255.637 241.005,255.858 239.200 C 255.979 238.210,256.240 237.229,256.439 237.020 C 256.637 236.811,256.800 235.787,256.800 234.744 C 256.800 233.701,256.980 232.736,257.200 232.600 C 257.420 232.464,257.600 231.564,257.600 230.600 C 257.600 229.636,257.780 228.736,258.000 228.600 C 258.220 228.464,258.400 227.474,258.400 226.400 C 258.400 225.326,258.580 224.336,258.800 224.200 C 259.020 224.064,259.201 223.108,259.202 222.076 C 259.207 218.344,259.963 216.821,261.962 216.520 C 265.856 215.933,270.445 215.575,271.800 215.754 C 272.814 215.887,273.107 215.846,272.600 215.642 C 272.068 215.428,273.074 215.236,275.600 215.071 C 283.730 214.540,286.430 214.274,286.607 213.988 C 286.708 213.825,287.468 213.925,288.295 214.212 C 290.021 214.809,290.153 215.666,289.220 220.200 C 288.396 224.203,288.022 226.097,287.602 228.400 C 287.381 229.610,287.005 231.590,286.765 232.800 C 286.526 234.010,286.189 235.720,286.016 236.600 C 285.458 239.454,284.422 244.555,284.026 246.400 C 283.599 248.392,283.665 248.056,280.598 263.800 C 279.398 269.960,278.220 276.080,277.981 277.400 C 277.742 278.720,277.380 280.520,277.177 281.400 C 276.714 283.406,274.802 292.793,274.367 295.200 C 274.045 296.980,273.473 299.801,272.765 303.100 C 271.809 307.553,271.645 308.359,271.239 310.600 C 270.703 313.550,271.158 314.135,273.514 313.524 C 274.331 313.313,275.720 312.997,276.600 312.824 C 277.480 312.650,278.470 312.391,278.801 312.249 C 279.131 312.107,280.841 311.909,282.601 311.808 C 287.674 311.519,290.570 311.159,290.980 310.765 C 291.189 310.564,292.539 310.396,293.980 310.392 C 295.421 310.388,297.770 310.218,299.200 310.015 C 300.630 309.813,303.105 309.597,304.700 309.536 C 306.295 309.475,307.600 309.311,307.600 309.171 C 307.600 308.821,314.604 308.247,319.200 308.221 L 323.000 308.200 323.111 306.600 C 323.172 305.720,323.389 304.640,323.594 304.200 C 323.799 303.760,324.056 302.320,324.165 301.000 C 324.273 299.680,324.556 297.340,324.792 295.800 C 325.028 294.260,325.392 291.830,325.600 290.400 C 325.808 288.970,326.164 286.585,326.389 285.100 C 327.155 280.067,327.573 277.007,327.826 274.600 C 327.964 273.280,328.240 272.029,328.439 271.820 C 328.638 271.611,328.800 270.656,328.800 269.697 C 328.800 268.739,328.970 267.200,329.178 266.277 C 329.385 265.355,329.843 262.620,330.194 260.200 C 330.546 257.780,331.093 254.270,331.411 252.400 C 331.992 248.982,332.590 245.279,333.219 241.200 C 333.405 239.990,333.755 237.920,333.996 236.600 C 334.237 235.280,334.601 233.210,334.804 232.000 C 335.007 230.790,335.358 228.810,335.583 227.600 C 335.808 226.390,336.188 224.230,336.428 222.800 C 336.668 221.370,337.039 219.210,337.253 218.000 C 337.468 216.790,337.732 214.900,337.841 213.800 C 337.950 212.700,338.201 211.440,338.398 211.000 C 338.596 210.560,338.851 209.390,338.964 208.400 C 339.174 206.572,339.627 203.734,340.402 199.400 C 340.638 198.080,340.924 196.280,341.038 195.400 C 341.152 194.520,341.407 193.440,341.603 193.000 C 341.800 192.560,342.048 191.300,342.154 190.200 C 342.261 189.100,342.546 187.210,342.789 186.000 C 343.032 184.790,343.385 182.900,343.573 181.800 C 343.760 180.700,344.131 178.720,344.397 177.400 C 344.907 174.870,345.137 173.619,346.167 167.800 C 346.517 165.820,346.966 163.390,347.165 162.400 C 347.363 161.410,347.739 159.520,348.000 158.200 C 348.261 156.880,348.622 155.080,348.802 154.200 C 349.700 149.818,350.064 148.064,350.382 146.600 C 350.573 145.720,350.933 144.010,351.182 142.800 C 351.431 141.590,351.819 139.790,352.043 138.800 C 352.268 137.810,352.549 136.280,352.667 135.400 C 352.785 134.520,353.044 133.629,353.241 133.420 C 353.438 133.211,353.600 132.367,353.600 131.544 C 353.600 130.721,353.780 129.936,354.000 129.800 C 354.220 129.664,354.400 128.944,354.400 128.200 C 354.400 127.456,354.580 126.736,354.800 126.600 C 355.020 126.464,355.200 125.654,355.200 124.800 C 355.200 123.946,355.380 123.136,355.600 123.000 C 355.820 122.864,356.000 122.144,356.000 121.400 C 356.000 120.656,356.180 119.936,356.400 119.800 C 356.620 119.664,356.800 118.944,356.800 118.200 C 356.800 117.456,356.980 116.736,357.200 116.600 C 357.420 116.464,357.600 115.744,357.600 115.000 C 357.600 114.256,357.780 113.536,358.000 113.400 C 358.220 113.264,358.400 112.454,358.400 111.600 C 358.400 110.746,358.580 109.936,358.800 109.800 C 359.020 109.664,359.200 109.122,359.200 108.595 C 359.200 108.069,359.360 107.224,359.555 106.719 C 359.750 106.213,360.127 104.810,360.392 103.600 C 360.657 102.390,361.035 100.860,361.231 100.200 C 361.427 99.540,362.231 96.570,363.018 93.600 C 363.805 90.630,364.618 87.887,364.825 87.505 C 365.031 87.123,365.200 86.573,365.200 86.281 C 365.200 85.990,365.645 84.616,366.189 83.229 C 367.506 79.867,366.552 78.346,363.800 79.419 " stroke="none" fill="#ebebeb" fill-rule="evenodd"></path><path id="path2" d="M0.000 200.000 L 0.000 400.000 200.000 400.000 L 400.000 400.000 400.000 200.000 L 400.000 0.000 200.000 0.000 L 0.000 0.000 0.000 200.000 M214.176 76.053 C 215.054 76.743,215.207 77.104,214.977 77.953 C 214.822 78.529,214.556 79.630,214.386 80.400 C 214.216 81.170,213.238 85.400,212.213 89.800 C 210.350 97.794,209.567 101.235,208.752 105.000 C 208.514 106.100,208.177 107.630,208.003 108.400 C 207.829 109.170,207.301 111.690,206.830 114.000 C 206.360 116.310,205.784 118.910,205.551 119.778 C 205.318 120.646,204.983 122.176,204.808 123.178 C 204.632 124.180,204.006 127.160,203.417 129.800 C 202.827 132.440,202.076 135.950,201.747 137.600 C 200.831 142.195,200.422 144.154,198.614 152.600 C 197.582 157.420,194.466 172.530,194.118 174.400 C 193.588 177.254,191.879 185.704,191.409 187.800 C 191.113 189.120,190.657 191.460,190.396 193.000 C 190.135 194.540,189.769 196.430,189.582 197.200 C 189.180 198.857,187.722 206.482,187.479 208.200 C 187.385 208.860,187.030 210.750,186.690 212.400 C 185.162 219.806,184.675 222.346,184.388 224.400 C 184.218 225.610,183.791 228.040,183.438 229.800 C 183.085 231.560,182.604 234.080,182.368 235.400 C 181.965 237.659,181.722 238.954,180.792 243.800 C 180.582 244.900,180.132 247.510,179.794 249.600 C 179.456 251.690,178.638 256.640,177.976 260.600 C 176.879 267.166,176.431 269.960,174.612 281.600 C 173.862 286.396,172.132 298.662,171.775 301.711 C 171.467 304.345,170.972 304.800,168.409 304.800 C 164.718 304.800,134.078 311.924,120.865 315.855 C 116.220 317.237,115.815 316.957,115.470 312.131 C 115.332 310.189,115.027 306.980,114.793 305.000 C 114.559 303.020,114.186 298.970,113.963 296.000 C 113.740 293.030,113.402 288.980,113.212 287.000 C 113.022 285.020,112.678 281.150,112.448 278.400 C 112.217 275.650,111.834 271.690,111.597 269.600 C 111.360 267.510,110.998 264.000,110.793 261.800 C 110.588 259.600,110.233 256.450,110.005 254.800 C 109.776 253.150,109.415 250.180,109.201 248.200 C 108.988 246.220,108.624 243.160,108.393 241.400 C 108.162 239.640,107.806 236.760,107.601 235.000 C 107.396 233.240,107.032 230.270,106.792 228.400 C 106.552 226.530,106.197 223.290,106.004 221.200 C 105.658 217.467,104.308 206.640,103.771 203.300 C 103.487 201.532,102.997 201.094,102.655 202.300 C 102.123 204.179,99.545 218.801,97.596 231.000 C 97.139 233.860,96.599 237.010,96.397 238.000 C 96.195 238.990,95.568 242.500,95.005 245.800 C 93.949 251.983,92.878 258.029,91.604 265.000 C 89.196 278.166,87.886 285.268,86.789 291.102 C 85.058 300.308,84.376 303.889,84.030 305.600 C 83.829 306.590,83.446 308.525,83.178 309.899 C 82.633 312.698,82.881 312.541,77.009 313.794 C 74.737 314.278,67.180 316.047,58.200 318.196 C 56.000 318.722,52.940 319.441,51.400 319.794 C 49.860 320.146,47.520 320.726,46.200 321.081 C 44.880 321.437,43.080 321.868,42.200 322.039 C 41.320 322.209,39.091 322.756,37.247 323.252 L 33.893 324.156 33.208 323.310 C 32.485 322.417,32.679 318.931,33.602 316.240 C 33.821 315.602,34.000 314.644,34.000 314.111 C 34.000 313.578,34.346 311.670,34.769 309.871 C 35.600 306.338,36.693 301.004,37.243 297.800 C 37.432 296.700,37.773 294.990,38.000 294.000 C 38.477 291.923,39.097 288.555,39.457 286.091 C 39.594 285.151,39.862 284.285,40.053 284.167 C 40.244 284.049,40.405 283.198,40.412 282.276 C 40.418 281.354,40.773 279.340,41.200 277.800 C 41.627 276.260,41.982 274.514,41.988 273.920 C 41.995 273.325,42.275 271.795,42.610 270.520 C 42.946 269.244,43.401 266.945,43.621 265.411 C 44.019 262.644,44.362 260.926,45.976 253.600 C 46.436 251.510,46.809 249.440,46.804 249.000 C 46.799 248.560,47.144 246.580,47.570 244.600 C 48.382 240.835,48.994 237.671,50.393 230.000 C 50.854 227.470,51.517 223.960,51.866 222.200 C 52.214 220.440,52.644 218.100,52.821 217.000 C 52.998 215.900,53.358 214.010,53.621 212.800 C 53.884 211.590,54.247 209.700,54.426 208.600 C 54.606 207.500,54.956 205.610,55.204 204.400 C 55.451 203.190,55.809 201.120,55.998 199.800 C 56.187 198.480,56.547 196.500,56.798 195.400 C 57.050 194.300,57.431 192.410,57.646 191.200 C 57.861 189.990,58.202 188.100,58.404 187.000 C 58.606 185.900,58.956 183.920,59.182 182.600 C 59.408 181.280,59.775 179.300,59.998 178.200 C 60.221 177.100,60.502 175.480,60.622 174.600 C 60.743 173.720,61.182 171.110,61.599 168.800 C 62.803 162.123,63.662 157.174,64.027 154.800 C 64.213 153.590,64.744 150.350,65.206 147.600 C 65.668 144.850,66.296 141.030,66.601 139.111 C 66.906 137.192,67.354 134.582,67.596 133.311 C 67.838 132.040,68.196 129.740,68.392 128.200 C 68.588 126.660,68.946 124.320,69.188 123.000 C 69.429 121.680,69.794 119.340,69.999 117.800 C 70.203 116.260,70.568 113.740,70.809 112.200 C 71.050 110.660,71.409 107.960,71.608 106.200 C 71.806 104.440,72.158 101.740,72.391 100.200 C 72.623 98.660,72.973 95.780,73.169 93.800 C 74.267 82.677,73.771 83.484,79.716 83.143 C 89.117 82.605,92.307 82.377,95.600 82.005 C 98.605 81.665,102.411 81.402,116.200 80.578 C 118.180 80.460,121.926 80.173,124.525 79.940 C 130.407 79.412,129.662 78.398,131.184 89.000 C 131.626 92.080,132.166 95.680,132.384 97.000 C 133.552 104.070,135.294 115.115,136.011 120.000 C 136.221 121.430,136.582 123.770,136.813 125.200 C 137.045 126.630,137.406 128.970,137.616 130.400 C 137.826 131.830,138.179 134.080,138.401 135.400 C 138.623 136.720,138.972 138.970,139.177 140.400 C 139.383 141.830,139.743 143.990,139.979 145.200 C 140.215 146.410,140.578 148.480,140.786 149.800 C 140.995 151.120,141.346 153.280,141.568 154.600 C 141.790 155.920,142.156 158.170,142.382 159.600 C 142.608 161.030,142.977 163.190,143.203 164.400 C 143.429 165.610,143.769 167.770,143.958 169.200 C 144.147 170.630,144.586 173.330,144.933 175.200 C 145.279 177.070,145.945 180.760,146.411 183.400 C 147.539 189.782,148.889 195.600,149.244 195.600 C 149.401 195.600,149.646 194.835,149.788 193.900 C 149.930 192.965,150.291 190.850,150.589 189.200 C 150.888 187.550,151.514 184.040,151.981 181.400 C 152.448 178.760,153.118 175.160,153.470 173.400 C 153.822 171.640,154.252 169.300,154.426 168.200 C 154.599 167.100,154.949 165.300,155.202 164.200 C 155.455 163.100,155.817 161.210,156.006 160.000 C 156.195 158.790,156.552 156.990,156.800 156.000 C 157.274 154.103,157.808 151.535,158.212 149.200 C 158.345 148.430,158.608 147.440,158.797 147.000 C 158.985 146.560,159.239 145.480,159.361 144.600 C 159.483 143.720,159.768 142.190,159.994 141.200 C 160.220 140.210,160.562 138.590,160.755 137.600 C 161.748 132.501,162.481 128.836,162.797 127.400 C 162.990 126.520,163.610 123.460,164.174 120.600 C 164.738 117.740,165.553 113.690,165.985 111.600 C 166.418 109.510,167.149 105.910,167.611 103.600 C 168.073 101.290,168.805 97.690,169.238 95.600 C 169.671 93.510,170.219 90.810,170.456 89.600 C 170.693 88.390,171.047 86.878,171.243 86.240 C 171.439 85.602,171.600 84.576,171.600 83.959 C 171.600 81.166,172.606 80.118,175.597 79.795 C 180.074 79.312,191.083 77.972,193.707 77.592 C 195.197 77.377,197.105 77.200,197.948 77.200 C 198.791 77.200,200.002 77.027,200.640 76.816 C 201.278 76.605,203.150 76.331,204.800 76.207 C 206.450 76.083,208.790 75.832,210.000 75.647 C 211.210 75.463,212.401 75.287,212.646 75.256 C 212.891 75.225,213.580 75.584,214.176 76.053 M367.392 79.732 C 367.948 80.580,367.930 80.878,367.194 83.017 C 365.977 86.555,363.033 96.685,361.387 103.000 C 360.585 106.080,359.762 109.230,359.558 110.000 C 359.355 110.770,359.002 112.210,358.775 113.200 C 358.547 114.190,358.190 115.675,357.980 116.500 C 357.196 119.593,356.745 121.450,356.378 123.100 C 356.170 124.035,355.830 125.565,355.622 126.500 C 355.414 127.435,355.072 128.920,354.862 129.800 C 354.433 131.601,353.679 135.002,353.178 137.400 C 352.994 138.280,352.653 139.810,352.421 140.800 C 352.188 141.790,351.822 143.500,351.606 144.600 C 351.391 145.700,350.835 148.400,350.371 150.600 C 349.907 152.800,349.376 155.410,349.191 156.400 C 349.007 157.390,348.201 161.530,347.401 165.600 C 346.602 169.670,345.779 173.945,345.574 175.100 C 345.368 176.255,345.020 178.190,344.800 179.400 C 344.580 180.610,344.220 182.590,344.000 183.800 C 343.780 185.010,343.420 186.990,343.200 188.200 C 342.980 189.410,342.611 191.435,342.380 192.700 C 342.149 193.965,341.774 196.080,341.546 197.400 C 341.318 198.720,340.969 200.700,340.770 201.800 C 340.571 202.900,340.212 204.970,339.972 206.400 C 339.732 207.830,339.385 209.900,339.200 211.000 C 338.895 212.813,338.631 214.405,337.605 220.600 C 337.287 222.521,336.766 225.540,336.016 229.800 C 335.339 233.650,334.370 239.335,333.614 243.900 C 333.386 245.275,333.014 247.525,332.786 248.900 C 331.843 254.590,331.602 256.103,330.603 262.600 C 330.028 266.340,329.400 270.390,329.207 271.600 C 329.015 272.810,328.651 275.150,328.400 276.800 C 328.149 278.450,327.774 280.880,327.568 282.200 C 327.361 283.520,327.014 285.815,326.796 287.300 C 326.578 288.785,326.206 291.305,325.968 292.900 C 325.396 296.739,324.943 299.948,324.458 303.600 C 323.774 308.739,323.921 308.587,319.136 309.138 C 316.861 309.400,313.470 309.796,311.600 310.018 C 309.730 310.240,301.720 311.150,293.800 312.040 C 285.880 312.930,277.653 313.860,275.518 314.107 C 270.908 314.640,269.687 314.111,270.213 311.809 C 270.365 311.144,270.649 309.835,270.845 308.900 C 271.040 307.965,271.388 306.345,271.618 305.300 C 272.336 302.042,272.832 299.462,273.061 297.800 C 273.183 296.920,273.444 296.029,273.641 295.820 C 273.838 295.611,274.000 294.677,274.000 293.744 C 274.000 292.811,274.180 291.936,274.400 291.800 C 274.620 291.664,274.800 290.789,274.800 289.856 C 274.800 288.923,274.962 287.989,275.159 287.780 C 275.356 287.571,275.617 286.680,275.739 285.800 C 275.860 284.920,276.143 283.300,276.367 282.200 C 277.299 277.627,277.651 275.715,277.843 274.200 C 277.954 273.320,278.201 272.240,278.392 271.800 C 278.583 271.360,278.856 270.190,278.999 269.200 C 279.143 268.210,279.420 266.590,279.615 265.600 C 279.810 264.610,280.075 263.170,280.204 262.400 C 280.333 261.630,280.595 260.280,280.787 259.400 C 281.265 257.201,281.545 255.792,285.391 236.200 C 287.248 226.740,288.961 218.211,289.197 217.246 C 289.763 214.933,291.057 215.015,275.600 216.391 C 273.290 216.597,269.158 216.951,266.418 217.179 C 260.656 217.658,260.703 217.627,260.042 221.400 C 259.773 222.940,259.396 225.010,259.206 226.000 C 259.016 226.990,258.652 228.970,258.398 230.400 C 258.143 231.830,257.778 233.810,257.587 234.800 C 257.395 235.790,257.041 237.680,256.800 239.000 C 256.559 240.320,256.208 242.210,256.019 243.200 C 255.831 244.190,255.490 245.990,255.262 247.200 C 255.034 248.410,254.641 250.480,254.388 251.800 C 254.135 253.120,253.780 255.010,253.600 256.000 C 253.154 258.449,252.407 262.261,251.994 264.200 C 251.807 265.080,251.447 266.970,251.194 268.400 C 250.941 269.830,250.568 271.810,250.364 272.800 C 249.791 275.583,248.607 281.705,246.614 292.200 C 245.610 297.480,244.623 302.520,244.420 303.400 C 243.393 307.837,243.200 308.827,243.194 309.677 C 243.178 312.183,242.745 312.407,234.800 314.017 C 227.313 315.534,218.331 317.401,215.400 318.048 C 214.520 318.243,212.810 318.598,211.600 318.838 C 210.390 319.078,208.635 319.437,207.700 319.637 C 206.765 319.837,205.235 320.160,204.300 320.356 C 203.365 320.552,201.610 320.932,200.400 321.200 C 199.190 321.468,197.473 321.814,196.585 321.967 C 195.697 322.121,194.768 322.372,194.521 322.525 C 191.918 324.134,189.303 322.396,189.929 319.472 C 190.173 318.332,190.480 316.860,190.611 316.200 C 191.180 313.333,191.657 310.862,192.000 309.000 C 192.203 307.900,192.565 306.010,192.805 304.800 C 193.044 303.590,193.332 301.880,193.443 301.000 C 193.554 300.120,193.805 299.040,194.000 298.600 C 194.195 298.160,194.448 297.080,194.562 296.200 C 194.764 294.636,195.183 292.222,195.950 288.200 C 196.160 287.100,196.527 285.120,196.765 283.800 C 197.004 282.480,197.369 280.500,197.576 279.400 C 197.993 277.188,200.614 263.009,201.217 259.700 C 201.428 258.545,201.798 256.565,202.040 255.300 C 202.471 253.051,202.645 252.101,203.600 246.800 C 203.858 245.370,204.240 243.300,204.450 242.200 C 204.823 240.246,205.190 238.254,206.000 233.800 C 206.789 229.463,207.175 227.366,207.585 225.200 C 207.814 223.990,208.104 222.190,208.230 221.200 C 208.356 220.210,208.616 219.040,208.808 218.600 C 209.001 218.160,209.249 216.990,209.360 216.000 C 209.471 215.010,209.751 213.165,209.981 211.900 C 210.212 210.635,210.580 208.610,210.800 207.400 C 211.020 206.190,211.380 204.210,211.600 203.000 C 211.820 201.790,212.163 199.855,212.363 198.700 C 212.849 195.885,213.553 191.847,213.984 189.400 C 214.177 188.300,214.514 186.320,214.732 185.000 C 214.950 183.680,215.606 179.900,216.190 176.600 C 216.774 173.300,217.426 169.520,217.640 168.200 C 218.343 163.855,218.754 161.432,219.200 159.000 C 219.442 157.680,219.811 155.565,220.020 154.300 C 220.229 153.035,220.598 150.875,220.840 149.500 C 221.081 148.125,221.435 146.010,221.626 144.800 C 221.817 143.590,222.158 141.520,222.384 140.200 C 222.609 138.880,222.981 136.630,223.210 135.200 C 223.439 133.770,223.800 131.565,224.013 130.300 C 224.226 129.035,224.580 126.920,224.800 125.600 C 225.020 124.280,225.380 122.120,225.600 120.800 C 226.116 117.706,226.692 114.070,227.184 110.800 C 227.822 106.556,228.344 103.163,228.782 100.400 C 229.008 98.970,229.365 96.540,229.575 95.000 C 230.381 89.084,230.825 86.176,231.018 85.557 C 231.232 84.869,232.048 84.767,243.400 84.009 C 246.480 83.803,251.430 83.445,254.400 83.212 C 257.370 82.980,262.410 82.612,265.600 82.393 C 268.790 82.175,273.650 81.821,276.400 81.607 C 287.851 80.716,287.559 80.482,285.406 88.853 C 284.593 92.014,283.785 95.230,283.611 96.000 C 283.438 96.770,282.918 99.020,282.456 101.000 C 281.062 106.975,278.803 116.872,278.348 119.000 C 278.112 120.100,277.776 121.630,277.600 122.400 C 277.124 124.486,276.359 127.977,275.956 129.900 C 275.760 130.835,275.428 132.365,275.217 133.300 C 275.007 134.235,274.631 135.990,274.382 137.200 C 273.874 139.671,273.399 141.898,272.782 144.700 C 272.552 145.745,272.200 147.410,272.000 148.400 C 271.800 149.390,271.465 151.010,271.255 152.000 C 271.046 152.990,270.661 154.880,270.400 156.200 C 270.139 157.520,269.779 159.320,269.600 160.200 C 269.421 161.080,269.069 162.880,268.819 164.200 C 268.132 167.827,267.720 169.955,267.191 172.600 C 266.488 176.121,266.490 177.025,267.200 176.861 C 267.530 176.785,269.330 176.547,271.200 176.333 C 273.070 176.119,275.860 175.770,277.400 175.559 C 281.568 174.987,286.159 174.459,290.200 174.088 C 295.338 173.616,295.617 173.406,296.161 169.600 C 296.359 168.214,296.828 165.667,297.598 161.800 C 297.817 160.700,298.173 158.720,298.388 157.400 C 298.604 156.080,299.241 152.480,299.803 149.400 C 300.366 146.320,301.092 142.180,301.417 140.200 C 301.743 138.220,302.179 135.700,302.386 134.600 C 302.594 133.500,302.960 131.430,303.200 130.000 C 303.801 126.421,304.973 119.978,305.419 117.800 C 305.554 117.140,305.750 115.880,305.855 115.000 C 305.960 114.120,306.204 113.040,306.398 112.600 C 306.592 112.160,306.857 111.080,306.987 110.200 C 307.564 106.297,307.669 105.755,307.998 105.000 C 308.357 104.174,308.686 102.571,309.064 99.800 C 309.184 98.920,309.444 98.029,309.641 97.820 C 309.838 97.611,310.000 96.767,310.000 95.944 C 310.000 95.121,310.161 94.348,310.358 94.226 C 310.555 94.105,310.810 93.329,310.925 92.503 C 311.040 91.676,311.341 90.190,311.592 89.200 C 311.843 88.210,312.151 86.860,312.275 86.200 C 312.599 84.476,312.943 84.186,315.295 83.655 C 319.302 82.749,332.247 81.235,343.000 80.414 C 348.940 79.961,355.510 79.441,357.600 79.259 C 365.099 78.607,366.706 78.684,367.392 79.732 " stroke="none" fill="#212120" fill-rule="evenodd"></path><path id="path3" d="M210.000 75.647 C 208.790 75.832,206.450 76.083,204.800 76.207 C 203.150 76.331,201.278 76.605,200.640 76.816 C 200.002 77.027,198.791 77.200,197.948 77.200 C 197.105 77.200,195.197 77.377,193.707 77.592 C 191.083 77.972,180.074 79.312,175.597 79.795 C 172.606 80.118,171.600 81.166,171.600 83.959 C 171.600 84.576,171.439 85.602,171.243 86.240 C 171.047 86.878,170.693 88.390,170.456 89.600 C 170.219 90.810,169.671 93.510,169.238 95.600 C 168.805 97.690,168.073 101.290,167.611 103.600 C 167.149 105.910,166.418 109.510,165.985 111.600 C 165.553 113.690,164.738 117.740,164.174 120.600 C 163.610 123.460,162.990 126.520,162.797 127.400 C 162.481 128.836,161.748 132.501,160.755 137.600 C 160.562 138.590,160.220 140.210,159.994 141.200 C 159.768 142.190,159.483 143.720,159.361 144.600 C 159.239 145.480,158.985 146.560,158.797 147.000 C 158.608 147.440,158.345 148.430,158.212 149.200 C 157.808 151.535,157.274 154.103,156.800 156.000 C 156.552 156.990,156.195 158.790,156.006 160.000 C 155.817 161.210,155.455 163.100,155.202 164.200 C 154.949 165.300,154.599 167.100,154.426 168.200 C 154.252 169.300,153.822 171.640,153.470 173.400 C 153.118 175.160,152.448 178.760,151.981 181.400 C 151.514 184.040,150.888 187.550,150.589 189.200 C 150.291 190.850,149.930 192.965,149.788 193.900 C 149.646 194.835,149.401 195.600,149.244 195.600 C 148.889 195.600,147.539 189.782,146.411 183.400 C 145.945 180.760,145.279 177.070,144.933 175.200 C 144.586 173.330,144.147 170.630,143.958 169.200 C 143.769 167.770,143.429 165.610,143.203 164.400 C 142.977 163.190,142.608 161.030,142.382 159.600 C 142.156 158.170,141.790 155.920,141.568 154.600 C 141.346 153.280,140.995 151.120,140.786 149.800 C 140.578 148.480,140.215 146.410,139.979 145.200 C 139.743 143.990,139.383 141.830,139.177 140.400 C 138.972 138.970,138.623 136.720,138.401 135.400 C 138.179 134.080,137.826 131.830,137.616 130.400 C 137.406 128.970,137.045 126.630,136.813 125.200 C 136.582 123.770,136.221 121.430,136.011 120.000 C 135.294 115.115,133.552 104.070,132.384 97.000 C 132.166 95.680,131.626 92.080,131.184 89.000 C 129.662 78.398,130.407 79.412,124.525 79.940 C 121.926 80.173,118.180 80.460,116.200 80.578 C 102.411 81.402,98.605 81.665,95.600 82.005 C 92.307 82.377,89.117 82.605,79.716 83.143 C 73.771 83.484,74.267 82.677,73.169 93.800 C 72.973 95.780,72.623 98.660,72.391 100.200 C 72.158 101.740,71.806 104.440,71.608 106.200 C 71.409 107.960,71.050 110.660,70.809 112.200 C 70.568 113.740,70.203 116.260,69.999 117.800 C 69.794 119.340,69.429 121.680,69.188 123.000 C 68.946 124.320,68.588 126.660,68.392 128.200 C 68.196 129.740,67.838 132.040,67.596 133.311 C 67.354 134.582,66.906 137.192,66.601 139.111 C 66.296 141.030,65.668 144.850,65.206 147.600 C 64.744 150.350,64.213 153.590,64.027 154.800 C 63.662 157.174,62.803 162.123,61.599 168.800 C 61.182 171.110,60.743 173.720,60.622 174.600 C 60.502 175.480,60.221 177.100,59.998 178.200 C 59.775 179.300,59.408 181.280,59.182 182.600 C 58.956 183.920,58.606 185.900,58.404 187.000 C 58.202 188.100,57.861 189.990,57.646 191.200 C 57.431 192.410,57.050 194.300,56.798 195.400 C 56.547 196.500,56.187 198.480,55.998 199.800 C 55.809 201.120,55.451 203.190,55.204 204.400 C 54.956 205.610,54.606 207.500,54.426 208.600 C 54.247 209.700,53.884 211.590,53.621 212.800 C 53.358 214.010,52.998 215.900,52.821 217.000 C 52.644 218.100,52.214 220.440,51.866 222.200 C 51.517 223.960,50.854 227.470,50.393 230.000 C 48.994 237.671,48.382 240.835,47.570 244.600 C 47.144 246.580,46.799 248.560,46.804 249.000 C 46.809 249.440,46.436 251.510,45.976 253.600 C 44.362 260.926,44.019 262.644,43.621 265.411 C 43.401 266.945,42.946 269.244,42.610 270.520 C 42.275 271.795,41.995 273.325,41.988 273.920 C 41.982 274.514,41.627 276.260,41.200 277.800 C 40.773 279.340,40.418 281.354,40.412 282.276 C 40.405 283.198,40.244 284.049,40.053 284.167 C 39.862 284.285,39.594 285.151,39.457 286.091 C 39.097 288.555,38.477 291.923,38.000 294.000 C 37.773 294.990,37.432 296.700,37.243 297.800 C 36.693 301.004,35.600 306.338,34.769 309.871 C 34.346 311.670,34.000 313.578,34.000 314.111 C 34.000 314.644,33.821 315.602,33.602 316.240 C 32.679 318.931,32.485 322.417,33.208 323.310 L 33.893 324.156 37.247 323.252 C 39.091 322.756,41.320 322.209,42.200 322.039 C 43.080 321.868,44.880 321.437,46.200 321.081 C 47.520 320.726,49.860 320.146,51.400 319.794 C 52.940 319.441,56.000 318.722,58.200 318.196 C 67.180 316.047,74.737 314.278,77.009 313.794 C 82.881 312.541,82.633 312.698,83.178 309.899 C 83.446 308.525,83.829 306.590,84.030 305.600 C 84.376 303.889,85.058 300.308,86.789 291.102 C 87.886 285.268,89.196 278.166,91.604 265.000 C 92.878 258.029,93.949 251.983,95.005 245.800 C 95.568 242.500,96.195 238.990,96.397 238.000 C 96.599 237.010,97.139 233.860,97.596 231.000 C 99.545 218.801,102.123 204.179,102.655 202.300 C 102.997 201.094,103.487 201.532,103.771 203.300 C 104.308 206.640,105.658 217.467,106.004 221.200 C 106.197 223.290,106.552 226.530,106.792 228.400 C 107.032 230.270,107.396 233.240,107.601 235.000 C 107.806 236.760,108.162 239.640,108.393 241.400 C 108.624 243.160,108.988 246.220,109.201 248.200 C 109.415 250.180,109.776 253.150,110.005 254.800 C 110.233 256.450,110.588 259.600,110.793 261.800 C 110.998 264.000,111.360 267.510,111.597 269.600 C 111.834 271.690,112.217 275.650,112.448 278.400 C 112.678 281.150,113.022 285.020,113.212 287.000 C 113.402 288.980,113.740 293.030,113.963 296.000 C 114.186 298.970,114.559 303.020,114.793 305.000 C 115.027 306.980,115.332 310.189,115.470 312.131 C 115.815 316.957,116.220 317.237,120.865 315.855 C 134.078 311.924,164.718 304.800,168.409 304.800 C 170.972 304.800,171.467 304.345,171.775 301.711 C 172.132 298.662,173.862 286.396,174.612 281.600 C 176.431 269.960,176.879 267.166,177.976 260.600 C 178.638 256.640,179.456 251.690,179.794 249.600 C 180.132 247.510,180.582 244.900,180.792 243.800 C 181.722 238.954,181.965 237.659,182.368 235.400 C 182.604 234.080,183.085 231.560,183.438 229.800 C 183.791 228.040,184.218 225.610,184.388 224.400 C 184.675 222.346,185.162 219.806,186.690 212.400 C 187.030 210.750,187.385 208.860,187.479 208.200 C 187.722 206.482,189.180 198.857,189.582 197.200 C 189.769 196.430,190.135 194.540,190.396 193.000 C 190.657 191.460,191.113 189.120,191.409 187.800 C 191.879 185.704,193.588 177.254,194.118 174.400 C 194.466 172.530,197.582 157.420,198.614 152.600 C 200.422 144.154,200.831 142.195,201.747 137.600 C 202.076 135.950,202.827 132.440,203.417 129.800 C 204.006 127.160,204.632 124.180,204.808 123.178 C 204.983 122.176,205.318 120.646,205.551 119.778 C 205.784 118.910,206.360 116.310,206.830 114.000 C 207.301 111.690,207.829 109.170,208.003 108.400 C 208.177 107.630,208.514 106.100,208.752 105.000 C 209.567 101.235,210.350 97.794,212.213 89.800 C 213.238 85.400,214.216 81.170,214.386 80.400 C 214.556 79.630,214.822 78.529,214.977 77.953 C 215.266 76.883,213.740 75.118,212.646 75.256 C 212.401 75.287,211.210 75.463,210.000 75.647 M213.520 76.480 C 214.245 77.205,214.100 78.706,213.007 81.800 C 212.462 83.340,212.013 85.061,212.008 85.625 C 212.004 86.188,211.668 87.988,211.263 89.625 C 210.858 91.261,210.213 94.040,209.830 95.800 C 209.447 97.560,208.796 100.350,208.383 102.000 C 207.714 104.670,207.036 107.899,205.948 113.600 C 205.759 114.590,205.430 116.120,205.217 117.000 C 204.843 118.541,203.992 122.472,202.663 128.800 C 202.316 130.450,201.556 133.960,200.975 136.600 C 200.393 139.240,199.757 142.445,199.561 143.721 C 199.366 144.998,199.024 146.382,198.802 146.796 C 198.580 147.210,198.209 148.956,197.976 150.675 C 197.743 152.394,197.304 154.700,197.000 155.800 C 196.468 157.726,196.240 158.858,194.997 165.751 C 194.684 167.485,194.253 169.465,194.039 170.151 C 193.825 170.838,193.454 172.726,193.214 174.347 C 192.974 175.967,192.603 177.620,192.389 178.020 C 192.175 178.420,192.000 179.302,192.000 179.979 C 192.000 180.657,191.564 183.054,191.032 185.306 C 190.500 187.558,189.853 190.480,189.595 191.800 C 188.652 196.619,187.992 200.262,187.566 203.000 C 187.326 204.540,186.786 207.200,186.365 208.910 C 185.944 210.621,185.600 212.388,185.600 212.837 C 185.600 213.286,185.255 215.216,184.834 217.126 C 184.413 219.037,183.866 221.770,183.618 223.200 C 181.952 232.800,180.965 238.006,179.971 242.442 C 179.547 244.335,179.201 246.405,179.202 247.042 C 179.202 247.679,178.854 250.180,178.428 252.600 C 178.001 255.020,177.445 258.170,177.192 259.600 C 176.374 264.225,175.148 272.127,174.803 275.000 C 174.618 276.540,174.264 278.610,174.016 279.600 C 173.583 281.324,172.381 289.842,171.616 296.600 C 170.838 303.468,170.822 303.490,166.175 303.739 C 164.209 303.845,162.060 304.142,161.400 304.399 C 159.764 305.038,154.047 306.374,150.400 306.969 C 148.750 307.239,147.040 307.650,146.600 307.883 C 146.160 308.117,144.828 308.439,143.639 308.600 C 142.450 308.760,140.920 309.118,140.239 309.394 C 139.558 309.671,138.035 310.019,136.856 310.168 C 135.677 310.317,134.327 310.691,133.856 310.999 C 133.385 311.307,132.010 311.733,130.800 311.946 C 127.510 312.526,123.099 313.622,122.251 314.071 C 120.552 314.971,117.865 315.556,117.161 315.179 C 116.214 314.672,116.209 314.633,114.179 289.600 C 113.848 285.530,113.405 281.120,113.192 279.800 C 112.980 278.480,112.803 276.320,112.800 275.000 C 112.797 273.680,112.632 271.520,112.433 270.200 C 112.235 268.880,111.856 265.730,111.591 263.200 C 111.326 260.670,110.850 256.530,110.532 254.000 C 110.215 251.470,109.797 247.870,109.603 246.000 C 109.409 244.130,109.053 241.250,108.812 239.600 C 108.571 237.950,108.208 234.890,108.004 232.800 C 107.801 230.710,107.438 227.830,107.197 226.400 C 106.956 224.970,106.593 221.820,106.392 219.400 C 106.190 216.980,105.837 213.830,105.608 212.400 C 105.379 210.970,105.011 207.849,104.791 205.465 C 104.371 200.915,103.963 199.600,102.976 199.600 C 102.098 199.600,101.723 200.928,100.572 208.110 C 100.000 211.680,99.253 215.770,98.912 217.200 C 98.571 218.630,98.162 221.060,98.003 222.600 C 97.844 224.140,97.426 226.930,97.074 228.800 C 96.721 230.670,96.054 234.360,95.592 237.000 C 95.129 239.640,94.498 243.150,94.190 244.800 C 93.881 246.450,93.515 248.700,93.376 249.800 C 93.237 250.900,92.886 252.790,92.595 254.000 C 92.305 255.210,91.951 257.190,91.809 258.400 C 91.487 261.156,90.544 266.367,89.566 270.800 C 89.154 272.670,88.633 275.606,88.409 277.325 C 88.184 279.044,87.821 280.787,87.600 281.199 C 87.380 281.611,87.200 282.741,87.200 283.710 C 87.200 284.680,86.929 286.356,86.597 287.436 C 86.265 288.516,85.733 290.930,85.415 292.800 C 84.670 297.173,84.107 300.134,83.169 304.600 C 82.754 306.580,82.271 308.909,82.098 309.775 C 81.768 311.421,80.670 311.922,75.000 313.018 C 72.376 313.525,66.500 314.909,64.800 315.421 C 63.810 315.719,62.100 316.075,61.000 316.213 C 59.900 316.351,57.920 316.799,56.600 317.209 C 55.280 317.619,53.210 318.150,52.000 318.389 C 50.790 318.629,48.270 319.191,46.400 319.639 C 44.530 320.087,41.920 320.650,40.600 320.891 C 39.280 321.131,37.573 321.749,36.807 322.264 C 33.829 324.265,32.941 323.290,33.787 318.944 C 35.331 311.007,36.106 307.206,36.671 304.800 C 37.006 303.370,37.439 301.120,37.632 299.800 C 37.825 298.480,38.180 296.590,38.420 295.600 C 38.660 294.610,39.001 292.900,39.178 291.800 C 39.621 289.045,40.703 283.668,41.632 279.600 C 42.059 277.730,42.406 275.829,42.404 275.376 C 42.402 274.923,42.742 273.123,43.160 271.376 C 43.578 269.629,44.227 266.400,44.603 264.200 C 44.978 262.000,45.611 258.760,46.010 257.000 C 46.408 255.240,46.847 252.990,46.984 252.000 C 47.122 251.010,47.482 249.030,47.785 247.600 C 48.518 244.135,50.852 231.775,52.430 223.000 C 52.905 220.360,53.633 216.728,54.047 214.929 C 54.461 213.130,54.799 211.240,54.798 210.729 C 54.796 210.218,55.143 208.090,55.568 206.000 C 56.914 199.380,57.727 195.062,58.017 193.000 C 58.172 191.900,58.577 189.560,58.917 187.800 C 59.258 186.040,59.623 184.060,59.729 183.400 C 59.835 182.740,60.488 179.140,61.180 175.400 C 61.872 171.660,62.603 167.520,62.806 166.200 C 63.008 164.880,63.555 161.640,64.020 159.000 C 64.485 156.360,65.204 152.058,65.618 149.441 C 66.031 146.823,66.547 143.763,66.764 142.641 C 66.981 141.518,67.536 138.170,67.999 135.200 C 68.461 132.230,69.115 128.270,69.451 126.400 C 69.787 124.530,70.210 121.650,70.389 120.000 C 70.569 118.350,70.999 115.200,71.344 113.000 C 71.689 110.800,72.158 107.605,72.386 105.900 C 73.375 98.494,73.595 96.824,73.981 93.800 C 74.205 92.040,74.499 89.411,74.634 87.958 C 74.967 84.392,74.783 84.521,80.203 84.035 C 86.720 83.451,103.935 82.132,112.000 81.599 C 115.630 81.359,120.850 80.995,123.600 80.790 C 129.368 80.360,129.600 80.467,129.600 83.557 C 129.600 85.197,129.928 87.425,131.814 98.600 C 132.968 105.441,133.642 109.812,134.033 112.993 C 134.249 114.749,134.690 117.325,135.013 118.718 C 135.336 120.110,135.597 121.733,135.594 122.325 C 135.590 122.916,135.939 125.380,136.370 127.800 C 136.800 130.220,137.529 134.630,137.989 137.600 C 139.498 147.335,139.637 148.183,139.997 149.800 C 140.193 150.680,140.458 152.300,140.585 153.400 C 140.713 154.500,141.005 156.300,141.235 157.400 C 141.464 158.500,141.797 160.480,141.973 161.800 C 142.150 163.120,142.588 165.910,142.947 168.000 C 143.306 170.090,143.862 173.330,144.184 175.200 C 144.505 177.070,144.871 179.320,144.996 180.200 C 145.281 182.215,146.065 186.035,147.478 192.300 C 148.988 199.000,149.500 198.937,150.741 191.900 C 151.256 188.985,151.949 185.340,152.283 183.800 C 152.617 182.260,153.027 179.920,153.195 178.600 C 153.537 175.913,154.468 171.098,155.632 166.000 C 156.059 164.130,156.406 162.132,156.404 161.560 C 156.402 160.988,156.561 159.998,156.757 159.360 C 156.953 158.722,157.333 157.120,157.600 155.800 C 157.868 154.480,158.413 151.870,158.812 150.000 C 159.211 148.130,159.916 144.800,160.380 142.600 C 160.844 140.400,161.578 137.027,162.012 135.104 C 162.445 133.181,162.800 131.280,162.800 130.880 C 162.800 130.480,163.141 128.723,163.557 126.976 C 163.974 125.229,164.616 122.270,164.985 120.400 C 165.717 116.685,166.803 111.405,167.988 105.800 C 168.407 103.820,168.862 101.480,169.000 100.600 C 169.138 99.720,169.519 97.740,169.848 96.200 C 170.679 92.298,171.854 86.681,172.480 83.617 C 173.125 80.463,171.830 80.780,193.800 78.391 C 197.012 78.042,204.744 77.091,209.600 76.447 C 211.030 76.257,212.389 76.079,212.620 76.051 C 212.851 76.023,213.256 76.216,213.520 76.480 M366.966 79.674 C 367.311 80.166,367.492 80.995,367.380 81.574 L 367.182 82.600 367.599 81.643 C 367.987 80.752,367.279 78.800,366.568 78.800 C 366.451 78.800,366.630 79.193,366.966 79.674 M358.300 79.482 C 358.795 79.578,359.605 79.578,360.100 79.482 C 360.595 79.387,360.190 79.309,359.200 79.309 C 358.210 79.309,357.805 79.387,358.300 79.482 M350.500 79.876 C 350.885 79.976,351.515 79.976,351.900 79.876 C 352.285 79.775,351.970 79.693,351.200 79.693 C 350.430 79.693,350.115 79.775,350.500 79.876 M345.900 80.289 C 346.615 80.378,347.785 80.378,348.500 80.289 C 349.215 80.201,348.630 80.128,347.200 80.128 C 345.770 80.128,345.185 80.201,345.900 80.289 M336.307 81.090 C 337.026 81.179,338.106 81.177,338.707 81.086 C 339.308 80.995,338.720 80.922,337.400 80.924 C 336.080 80.926,335.588 81.001,336.307 81.090 M280.100 81.476 C 280.485 81.576,281.115 81.576,281.500 81.476 C 281.885 81.375,281.570 81.293,280.800 81.293 C 280.030 81.293,279.715 81.375,280.100 81.476 M329.600 81.600 L 327.800 81.880 329.400 81.893 C 330.280 81.900,331.540 81.768,332.200 81.600 C 333.800 81.193,332.219 81.193,329.600 81.600 M274.900 81.891 C 275.725 81.978,277.075 81.978,277.900 81.891 C 278.725 81.805,278.050 81.734,276.400 81.734 C 274.750 81.734,274.075 81.805,274.900 81.891 M263.511 82.693 C 264.451 82.778,265.891 82.777,266.711 82.691 C 267.530 82.605,266.760 82.536,265.000 82.537 C 263.240 82.539,262.570 82.609,263.511 82.693 M322.500 82.676 C 322.885 82.776,323.515 82.776,323.900 82.676 C 324.285 82.575,323.970 82.493,323.200 82.493 C 322.430 82.493,322.115 82.575,322.500 82.676 M258.100 83.076 C 258.485 83.176,259.115 83.176,259.500 83.076 C 259.885 82.975,259.570 82.893,258.800 82.893 C 258.030 82.893,257.715 82.975,258.100 83.076 M252.691 83.489 C 253.401 83.577,254.661 83.579,255.491 83.492 C 256.321 83.405,255.740 83.333,254.200 83.331 C 252.660 83.329,251.981 83.400,252.691 83.489 M316.705 83.483 C 317.202 83.579,317.922 83.575,318.305 83.475 C 318.687 83.375,318.280 83.296,317.400 83.301 C 316.520 83.305,316.207 83.387,316.705 83.483 M240.900 84.294 C 241.945 84.376,243.655 84.376,244.700 84.294 C 245.745 84.212,244.890 84.144,242.800 84.144 C 240.710 84.144,239.855 84.212,240.900 84.294 M230.849 86.200 C 230.816 86.640,230.696 87.450,230.583 88.000 L 230.377 89.000 230.806 88.019 C 231.042 87.479,231.161 86.669,231.072 86.219 C 230.913 85.421,230.907 85.421,230.849 86.200 M229.029 98.229 C 228.881 98.815,228.838 99.372,228.932 99.466 C 229.027 99.560,229.224 99.158,229.371 98.571 C 229.519 97.985,229.562 97.428,229.468 97.334 C 229.373 97.240,229.176 97.642,229.029 98.229 M227.449 108.215 C 227.312 108.573,227.215 109.166,227.234 109.533 C 227.253 109.900,227.427 109.669,227.621 109.020 C 227.998 107.758,227.865 107.133,227.449 108.215 M305.449 117.015 C 305.312 117.373,305.215 117.966,305.234 118.333 C 305.253 118.700,305.427 118.469,305.621 117.820 C 305.998 116.558,305.865 115.933,305.449 117.015 M225.049 123.415 C 224.912 123.773,224.815 124.366,224.834 124.733 C 224.853 125.100,225.027 124.869,225.221 124.220 C 225.598 122.958,225.465 122.333,225.049 123.415 M224.249 128.215 C 224.112 128.573,224.015 129.166,224.034 129.533 C 224.053 129.900,224.227 129.669,224.421 129.020 C 224.798 127.758,224.665 127.133,224.249 128.215 M275.646 130.067 C 275.621 130.434,275.496 131.064,275.370 131.467 C 275.152 132.162,275.163 132.163,275.597 131.487 C 275.848 131.096,275.973 130.466,275.873 130.087 C 275.711 129.468,275.688 129.466,275.646 130.067 M223.449 133.015 C 223.312 133.373,223.215 133.966,223.234 134.333 C 223.253 134.700,223.427 134.469,223.621 133.820 C 223.998 132.558,223.865 131.933,223.449 133.015 M302.093 136.400 C 302.093 137.170,302.175 137.485,302.276 137.100 C 302.376 136.715,302.376 136.085,302.276 135.700 C 302.175 135.315,302.093 135.630,302.093 136.400 M221.693 144.000 C 221.693 144.770,221.775 145.085,221.876 144.700 C 221.976 144.315,221.976 143.685,221.876 143.300 C 221.775 142.915,221.693 143.230,221.693 144.000 M286.800 174.395 C 286.391 174.655,286.710 174.699,287.800 174.532 C 289.777 174.229,290.114 173.998,288.567 174.006 C 287.925 174.009,287.130 174.184,286.800 174.395 M280.000 175.195 C 279.591 175.455,279.910 175.499,281.000 175.332 C 282.977 175.029,283.314 174.798,281.767 174.806 C 281.125 174.809,280.330 174.984,280.000 175.195 M285.700 215.476 C 286.085 215.576,286.715 215.576,287.100 215.476 C 287.485 215.375,287.170 215.293,286.400 215.293 C 285.630 215.293,285.315 215.375,285.700 215.476 M279.700 215.876 C 280.085 215.976,280.715 215.976,281.100 215.876 C 281.485 215.775,281.170 215.693,280.400 215.693 C 279.630 215.693,279.315 215.775,279.700 215.876 M267.700 217.076 C 268.085 217.176,268.715 217.176,269.100 217.076 C 269.485 216.975,269.170 216.893,268.400 216.893 C 267.630 216.893,267.315 216.975,267.700 217.076 M260.749 217.900 C 260.271 218.509,260.278 218.540,260.800 218.135 C 261.130 217.880,261.940 217.592,262.600 217.495 L 263.800 217.320 262.549 217.260 C 261.777 217.223,261.088 217.468,260.749 217.900 M207.049 227.415 C 206.912 227.773,206.815 228.366,206.834 228.733 C 206.853 229.100,207.027 228.869,207.221 228.220 C 207.598 226.958,207.465 226.333,207.049 227.415 M206.249 231.815 C 206.112 232.173,206.015 232.766,206.034 233.133 C 206.053 233.500,206.227 233.269,206.421 232.620 C 206.798 231.358,206.665 230.733,206.249 231.815 M280.629 259.829 C 280.481 260.415,280.438 260.972,280.532 261.066 C 280.627 261.160,280.824 260.758,280.971 260.171 C 281.119 259.585,281.162 259.028,281.068 258.934 C 280.973 258.840,280.776 259.242,280.629 259.829 M329.693 267.200 C 329.693 267.970,329.775 268.285,329.876 267.900 C 329.976 267.515,329.976 266.885,329.876 266.500 C 329.775 266.115,329.693 266.430,329.693 267.200 M250.229 271.829 C 250.081 272.415,250.038 272.972,250.132 273.066 C 250.227 273.160,250.424 272.758,250.571 272.171 C 250.719 271.585,250.762 271.028,250.668 270.934 C 250.573 270.840,250.376 271.242,250.229 271.829 M197.029 281.829 C 196.881 282.415,196.838 282.972,196.932 283.066 C 197.027 283.160,197.224 282.758,197.371 282.171 C 197.519 281.585,197.562 281.028,197.468 280.934 C 197.373 280.840,197.176 281.242,197.029 281.829 M192.249 307.015 C 192.112 307.373,192.015 307.966,192.034 308.333 C 192.053 308.700,192.227 308.469,192.421 307.820 C 192.798 306.558,192.665 305.933,192.249 307.015 M271.049 307.415 C 270.912 307.773,270.815 308.366,270.834 308.733 C 270.853 309.100,271.027 308.869,271.221 308.220 C 271.598 306.958,271.465 306.333,271.049 307.415 M315.100 309.482 C 315.595 309.578,316.405 309.578,316.900 309.482 C 317.395 309.387,316.990 309.309,316.000 309.309 C 315.010 309.309,314.605 309.387,315.100 309.482 M308.305 310.283 C 308.802 310.379,309.522 310.375,309.905 310.275 C 310.287 310.175,309.880 310.096,309.000 310.101 C 308.120 310.105,307.807 310.187,308.305 310.283 M300.705 311.083 C 301.202 311.179,301.922 311.175,302.305 311.075 C 302.687 310.975,302.280 310.896,301.400 310.901 C 300.520 310.905,300.207 310.987,300.705 311.083 M242.180 311.961 C 241.971 312.160,241.440 312.409,241.000 312.515 C 240.241 312.697,240.244 312.710,241.051 312.754 C 241.519 312.779,242.126 312.530,242.400 312.200 C 242.943 311.546,242.791 311.381,242.180 311.961 M270.046 312.238 C 270.021 312.699,270.405 313.419,270.900 313.838 C 271.793 314.594,271.795 314.593,271.141 313.800 C 270.779 313.360,270.395 312.640,270.288 312.200 C 270.100 311.431,270.091 311.432,270.046 312.238 M293.700 311.876 C 294.085 311.976,294.715 311.976,295.100 311.876 C 295.485 311.775,295.170 311.693,294.400 311.693 C 293.630 311.693,293.315 311.775,293.700 311.876 M286.500 312.676 C 286.885 312.776,287.515 312.776,287.900 312.676 C 288.285 312.575,287.970 312.493,287.200 312.493 C 286.430 312.493,286.115 312.575,286.500 312.676 M190.649 315.415 C 190.512 315.773,190.415 316.366,190.434 316.733 C 190.453 317.100,190.627 316.869,190.821 316.220 C 191.198 314.958,191.065 314.333,190.649 315.415 M212.600 318.400 C 212.096 318.617,212.022 318.744,212.400 318.744 C 212.730 318.744,213.360 318.589,213.800 318.400 C 214.304 318.183,214.378 318.056,214.000 318.056 C 213.670 318.056,213.040 318.211,212.600 318.400 " stroke="none" fill="#723638" fill-rule="evenodd"></path><path id="path4" d="M361.800 79.231 C 361.002 79.454,361.564 79.498,363.474 79.362 C 367.259 79.092,367.612 79.596,366.189 83.229 C 365.645 84.616,365.200 85.990,365.200 86.281 C 365.200 86.573,365.031 87.123,364.825 87.505 C 364.618 87.887,363.805 90.630,363.018 93.600 C 362.231 96.570,361.427 99.540,361.231 100.200 C 361.035 100.860,360.657 102.390,360.392 103.600 C 360.127 104.810,359.750 106.213,359.555 106.719 C 359.360 107.224,359.200 108.069,359.200 108.595 C 359.200 109.122,359.020 109.664,358.800 109.800 C 358.580 109.936,358.400 110.746,358.400 111.600 C 358.400 112.454,358.220 113.264,358.000 113.400 C 357.780 113.536,357.600 114.256,357.600 115.000 C 357.600 115.744,357.420 116.464,357.200 116.600 C 356.980 116.736,356.800 117.456,356.800 118.200 C 356.800 118.944,356.620 119.664,356.400 119.800 C 356.180 119.936,356.000 120.656,356.000 121.400 C 356.000 122.144,355.820 122.864,355.600 123.000 C 355.380 123.136,355.200 123.946,355.200 124.800 C 355.200 125.654,355.020 126.464,354.800 126.600 C 354.580 126.736,354.400 127.456,354.400 128.200 C 354.400 128.944,354.220 129.664,354.000 129.800 C 353.780 129.936,353.600 130.721,353.600 131.544 C 353.600 132.367,353.438 133.211,353.241 133.420 C 353.044 133.629,352.785 134.520,352.667 135.400 C 352.549 136.280,352.268 137.810,352.043 138.800 C 351.819 139.790,351.431 141.590,351.182 142.800 C 350.933 144.010,350.573 145.720,350.382 146.600 C 350.064 148.064,349.700 149.818,348.802 154.200 C 348.622 155.080,348.261 156.880,348.000 158.200 C 347.739 159.520,347.363 161.410,347.165 162.400 C 346.966 163.390,346.518 165.820,346.169 167.800 C 345.270 172.893,344.860 175.108,344.390 177.400 C 344.164 178.500,343.896 180.300,343.795 181.400 C 343.527 184.302,344.103 182.147,345.184 176.200 C 346.249 170.341,348.039 161.034,348.800 157.400 C 348.984 156.520,349.344 154.720,349.600 153.400 C 349.856 152.080,350.230 150.235,350.432 149.300 C 350.932 146.988,351.433 144.626,351.981 142.000 C 352.420 139.893,352.678 138.718,353.628 134.500 C 353.863 133.455,354.216 131.880,354.410 131.000 C 355.910 124.232,357.581 117.210,359.646 109.000 C 362.921 95.977,363.844 92.648,366.623 83.844 C 368.103 79.155,366.736 77.848,361.800 79.231 M350.800 80.020 C 349.810 80.197,347.560 80.364,345.800 80.393 C 344.040 80.422,341.880 80.595,341.000 80.777 L 339.400 81.108 341.200 81.128 C 342.190 81.138,346.960 80.821,351.800 80.422 C 359.044 79.825,359.893 79.698,356.600 79.699 C 354.400 79.700,351.790 79.844,350.800 80.020 M280.600 81.612 C 279.314 81.852,279.613 81.907,282.121 81.896 C 286.467 81.877,286.470 81.883,284.799 87.800 C 284.550 88.680,284.171 90.120,283.955 91.000 C 283.740 91.880,283.382 93.320,283.160 94.200 C 282.938 95.080,282.596 96.520,282.400 97.400 C 282.204 98.280,281.870 99.720,281.657 100.600 C 281.445 101.480,281.001 103.460,280.671 105.000 C 280.340 106.540,279.671 109.510,279.183 111.600 C 277.948 116.889,277.575 118.751,277.379 120.600 C 277.131 122.939,277.710 121.127,278.785 116.200 C 280.137 109.998,281.882 102.364,282.396 100.400 C 282.597 99.630,283.139 97.380,283.600 95.400 C 284.061 93.420,284.609 91.125,284.819 90.300 C 285.029 89.475,285.391 88.035,285.625 87.100 C 285.858 86.165,286.194 84.929,286.370 84.353 C 287.184 81.696,285.201 80.754,280.600 81.612 M332.200 81.600 C 330.517 82.028,333.738 82.040,336.800 81.617 L 339.000 81.313 336.200 81.304 C 334.660 81.299,332.860 81.432,332.200 81.600 M269.200 82.400 C 267.223 82.816,272.211 82.830,275.200 82.417 C 277.284 82.129,277.221 82.112,274.000 82.109 C 272.130 82.107,269.970 82.238,269.200 82.400 M325.200 82.400 C 323.841 82.835,327.290 82.835,329.000 82.400 C 330.025 82.139,329.909 82.094,328.200 82.087 C 327.100 82.083,325.750 82.224,325.200 82.400 M258.400 83.200 C 256.761 83.455,256.850 83.482,259.400 83.500 C 260.940 83.512,263.190 83.384,264.400 83.217 C 266.543 82.921,266.517 82.913,263.400 82.916 C 261.640 82.918,259.390 83.046,258.400 83.200 M319.600 83.200 C 318.218 83.643,320.860 83.643,322.600 83.200 C 323.742 82.910,323.722 82.894,322.200 82.887 C 321.320 82.883,320.150 83.024,319.600 83.200 M247.600 84.000 C 245.565 84.428,250.800 84.447,253.200 84.020 C 254.838 83.729,254.730 83.700,252.000 83.703 C 250.350 83.704,248.370 83.838,247.600 84.000 M314.800 84.000 C 313.891 84.291,313.927 84.321,315.200 84.332 C 315.970 84.338,316.960 84.189,317.400 84.000 C 318.482 83.535,316.252 83.535,314.800 84.000 M235.200 84.800 C 232.863 85.035,233.024 85.064,236.800 85.084 C 239.110 85.096,241.540 84.968,242.200 84.800 C 243.710 84.416,239.015 84.416,235.200 84.800 M312.957 84.869 C 312.798 85.127,312.517 86.027,312.334 86.869 C 312.150 87.711,311.812 89.165,311.582 90.100 C 310.662 93.840,310.464 94.678,310.049 96.600 C 309.811 97.700,309.244 100.310,308.790 102.400 C 308.335 104.490,307.773 107.100,307.542 108.200 C 307.310 109.300,306.949 111.010,306.739 112.000 C 306.528 112.990,306.195 114.700,305.998 115.800 C 305.801 116.900,305.091 120.763,304.420 124.385 C 303.749 128.006,303.200 131.321,303.200 131.751 C 303.200 133.285,303.676 132.022,304.036 129.532 C 304.404 126.989,304.934 123.917,305.648 120.200 C 305.859 119.100,306.195 117.300,306.394 116.200 C 306.594 115.100,306.930 113.390,307.142 112.400 C 307.353 111.410,307.722 109.610,307.962 108.400 C 308.202 107.190,308.560 105.480,308.759 104.600 C 308.957 103.720,309.336 102.010,309.600 100.800 C 310.887 94.910,312.210 89.225,312.929 86.500 C 313.486 84.388,313.493 84.003,312.957 84.869 M231.246 86.300 C 231.282 87.143,231.339 87.213,231.493 86.600 C 231.603 86.160,231.897 85.668,232.146 85.506 C 232.434 85.320,232.344 85.210,231.900 85.206 C 231.390 85.202,231.213 85.499,231.246 86.300 M230.697 88.400 C 230.540 88.950,230.428 90.120,230.449 91.000 L 230.488 92.600 230.849 90.800 C 231.283 88.644,231.164 86.771,230.697 88.400 M229.853 94.036 C 229.714 94.731,229.600 95.815,229.600 96.444 C 229.600 97.074,229.427 98.356,229.215 99.294 C 229.003 100.232,228.631 102.350,228.390 104.000 C 228.148 105.650,227.792 107.990,227.600 109.200 C 227.408 110.410,227.049 112.750,226.803 114.400 C 226.557 116.050,226.196 118.300,226.000 119.400 C 225.804 120.500,225.439 122.750,225.188 124.400 C 224.937 126.050,224.583 128.210,224.400 129.200 C 224.217 130.190,223.859 132.350,223.603 134.000 C 223.347 135.650,222.986 137.720,222.800 138.600 C 222.262 141.142,221.873 145.026,222.185 144.732 C 222.341 144.584,222.647 143.234,222.864 141.732 C 223.309 138.656,223.756 135.817,224.398 132.000 C 224.638 130.570,225.022 128.230,225.249 126.800 C 225.477 125.370,225.815 123.300,226.000 122.200 C 226.524 119.080,227.646 112.023,228.795 104.600 C 230.132 95.974,230.494 93.161,230.295 92.962 C 230.191 92.858,229.992 93.341,229.853 94.036 M276.692 122.642 C 276.531 122.802,276.400 123.613,276.400 124.443 C 276.400 125.273,276.239 126.052,276.042 126.174 C 275.845 126.295,275.585 127.071,275.463 127.897 C 275.341 128.724,275.058 130.300,274.835 131.400 C 274.613 132.500,274.321 134.030,274.188 134.800 C 274.055 135.570,273.789 136.560,273.598 137.000 C 273.406 137.440,273.148 138.475,273.025 139.300 C 272.901 140.125,272.699 141.475,272.575 142.300 C 272.452 143.125,272.193 144.160,272.000 144.600 C 271.807 145.040,271.556 146.030,271.441 146.800 C 271.327 147.570,271.038 149.190,270.800 150.400 C 270.562 151.610,270.273 153.230,270.159 154.000 C 270.044 154.770,269.795 155.760,269.606 156.200 C 269.416 156.640,269.158 157.720,269.032 158.600 C 268.907 159.480,268.614 161.100,268.383 162.200 C 267.421 166.780,266.426 172.264,266.043 175.088 C 265.693 177.675,265.897 177.785,269.976 177.201 C 273.798 176.654,277.616 176.158,282.200 175.612 C 284.180 175.377,287.018 175.008,288.507 174.792 C 289.997 174.576,291.987 174.400,292.931 174.400 C 295.856 174.400,297.055 171.487,298.199 161.600 C 298.520 158.824,297.786 161.180,297.202 164.800 C 296.936 166.450,296.556 168.322,296.359 168.960 C 296.161 169.598,296.000 170.700,296.000 171.411 C 296.000 173.202,295.268 173.650,291.698 174.039 C 286.945 174.558,282.147 175.126,278.400 175.614 C 276.530 175.858,273.740 176.212,272.200 176.401 C 270.660 176.590,268.725 176.871,267.900 177.025 C 266.237 177.335,265.930 176.461,266.754 173.760 C 266.948 173.122,267.317 171.340,267.574 169.800 C 267.831 168.260,268.197 166.280,268.388 165.400 C 268.579 164.520,268.930 162.810,269.169 161.600 C 269.407 160.390,269.895 157.960,270.253 156.200 C 270.611 154.440,271.037 152.280,271.200 151.400 C 271.637 149.041,272.758 143.636,273.191 141.800 C 273.398 140.920,273.944 138.400,274.404 136.200 C 274.864 134.000,275.695 130.173,276.252 127.695 C 277.215 123.406,277.338 121.996,276.692 122.642 M302.647 134.537 C 302.478 135.602,302.432 136.565,302.544 136.678 C 302.836 136.969,303.305 134.224,303.114 133.340 C 303.027 132.933,302.816 133.471,302.647 134.537 M301.819 139.318 C 301.645 140.374,301.604 141.337,301.726 141.459 C 302.036 141.770,302.511 139.042,302.304 138.140 C 302.210 137.733,301.992 138.263,301.819 139.318 M301.047 143.737 C 300.878 144.802,300.832 145.765,300.944 145.878 C 301.236 146.169,301.705 143.424,301.514 142.540 C 301.427 142.133,301.216 142.671,301.047 143.737 M221.061 149.328 C 220.655 151.708,220.418 153.751,220.535 153.869 C 220.652 153.986,220.856 153.388,220.986 152.541 C 221.117 151.693,221.417 150.099,221.653 148.997 C 221.888 147.896,222.018 146.546,221.941 145.997 C 221.863 145.449,221.467 146.947,221.061 149.328 M300.182 148.582 C 300.029 149.602,300.002 150.535,300.122 150.655 C 300.242 150.775,300.465 150.039,300.618 149.018 C 300.771 147.998,300.798 147.065,300.678 146.945 C 300.558 146.825,300.335 147.561,300.182 148.582 M299.497 152.000 C 299.340 152.550,299.225 153.540,299.242 154.200 L 299.272 155.400 299.658 154.058 C 299.871 153.320,299.986 152.330,299.914 151.858 C 299.792 151.054,299.766 151.063,299.497 152.000 M219.847 156.537 C 219.678 157.602,219.632 158.565,219.744 158.678 C 220.036 158.969,220.505 156.224,220.314 155.340 C 220.227 154.933,220.016 155.471,219.847 156.537 M298.582 157.382 C 298.429 158.402,298.402 159.335,298.522 159.455 C 298.642 159.575,298.865 158.839,299.018 157.818 C 299.171 156.798,299.198 155.865,299.078 155.745 C 298.958 155.625,298.735 156.361,298.582 157.382 M219.047 161.337 C 218.878 162.402,218.832 163.365,218.944 163.478 C 219.236 163.769,219.705 161.024,219.514 160.140 C 219.427 159.733,219.216 160.271,219.047 161.337 M218.218 165.926 C 218.053 167.095,218.013 168.146,218.129 168.262 C 218.414 168.547,218.931 164.987,218.700 164.325 C 218.600 164.036,218.382 164.757,218.218 165.926 M217.419 170.518 C 217.245 171.574,217.204 172.537,217.326 172.659 C 217.636 172.970,218.111 170.242,217.904 169.340 C 217.810 168.933,217.592 169.463,217.419 170.518 M216.619 175.318 C 216.445 176.374,216.404 177.337,216.526 177.459 C 216.836 177.770,217.311 175.042,217.104 174.140 C 217.010 173.733,216.792 174.263,216.619 175.318 M215.841 180.000 C 215.688 180.990,215.405 182.610,215.212 183.600 C 215.019 184.590,214.667 186.525,214.430 187.900 C 212.938 196.572,211.776 203.106,210.376 210.700 C 209.370 216.156,208.633 220.263,207.988 224.000 C 207.741 225.430,207.383 227.410,207.193 228.400 C 206.728 230.812,205.454 237.727,204.185 244.722 C 203.615 247.869,203.227 250.659,203.323 250.922 C 203.419 251.185,203.616 250.680,203.761 249.800 C 203.906 248.920,204.210 247.210,204.436 246.000 C 204.663 244.790,205.017 242.855,205.224 241.700 C 205.703 239.026,206.284 235.828,206.824 232.900 C 207.057 231.635,207.417 229.655,207.624 228.500 C 207.831 227.345,208.180 225.410,208.400 224.200 C 208.620 222.990,208.969 221.055,209.176 219.900 C 209.383 218.745,209.745 216.810,209.981 215.600 C 210.217 214.390,210.934 210.430,211.575 206.800 C 212.215 203.170,213.578 195.476,214.604 189.703 C 215.630 183.930,216.390 178.980,216.293 178.703 C 216.197 178.426,215.993 179.010,215.841 180.000 M343.041 184.453 C 342.305 187.980,341.692 194.080,342.363 191.200 C 343.105 188.017,343.713 183.980,343.484 183.751 C 343.349 183.616,343.150 183.932,343.041 184.453 M341.472 193.200 C 341.350 193.530,341.156 194.520,341.041 195.400 C 340.926 196.280,340.638 198.080,340.402 199.400 C 339.627 203.734,339.174 206.572,338.964 208.400 C 338.851 209.390,338.596 210.560,338.398 211.000 C 338.201 211.440,337.950 212.700,337.841 213.800 C 337.732 214.900,337.468 216.790,337.253 218.000 C 337.039 219.210,336.668 221.370,336.428 222.800 C 336.188 224.230,335.808 226.390,335.583 227.600 C 335.358 228.810,335.007 230.790,334.804 232.000 C 334.601 233.210,334.237 235.280,333.996 236.600 C 333.755 237.920,333.405 239.990,333.219 241.200 C 332.590 245.279,331.992 248.982,331.411 252.400 C 331.093 254.270,330.546 257.780,330.194 260.200 C 329.843 262.620,329.385 265.355,329.178 266.277 C 328.970 267.200,328.819 268.730,328.841 269.677 C 328.870 270.879,329.105 270.068,329.618 267.000 C 330.022 264.580,330.534 261.520,330.756 260.200 C 330.978 258.880,331.355 256.540,331.595 255.000 C 331.835 253.460,332.204 251.165,332.416 249.900 C 332.627 248.635,332.988 246.475,333.217 245.100 C 333.447 243.725,333.791 241.700,333.983 240.600 C 334.174 239.500,334.526 237.475,334.765 236.100 C 335.004 234.725,335.388 232.475,335.618 231.100 C 335.848 229.725,336.200 227.700,336.400 226.600 C 337.018 223.199,337.542 220.084,338.822 212.200 C 339.500 208.020,340.505 202.115,341.054 199.078 C 341.938 194.190,342.136 191.398,341.472 193.200 M286.572 214.046 C 286.451 214.241,285.607 214.400,284.695 214.400 C 283.783 214.400,281.139 214.588,278.818 214.818 C 276.498 215.049,271.990 215.490,268.800 215.800 C 261.949 216.465,261.068 216.587,260.477 216.953 C 259.836 217.348,259.205 219.888,259.202 222.076 C 259.201 223.108,259.020 224.064,258.800 224.200 C 258.580 224.336,258.400 225.326,258.400 226.400 C 258.400 227.474,258.220 228.464,258.000 228.600 C 257.780 228.736,257.600 229.636,257.600 230.600 C 257.600 231.564,257.420 232.464,257.200 232.600 C 256.980 232.736,256.800 233.701,256.800 234.744 C 256.800 235.787,256.637 236.811,256.439 237.020 C 256.240 237.229,255.979 238.210,255.858 239.200 C 255.637 241.005,255.205 243.493,254.400 247.600 C 254.163 248.810,253.803 250.700,253.600 251.800 C 253.210 253.915,252.653 256.758,252.013 259.900 C 251.800 260.945,251.458 262.700,251.253 263.800 C 251.048 264.900,250.664 266.880,250.400 268.200 C 250.136 269.520,249.769 271.410,249.585 272.400 C 249.400 273.390,249.142 274.740,249.011 275.400 C 248.880 276.060,248.598 277.500,248.384 278.600 C 248.171 279.700,247.464 283.300,246.813 286.600 C 246.163 289.900,245.426 293.770,245.176 295.200 C 242.989 307.700,242.149 311.200,241.336 311.200 C 241.041 311.200,240.800 311.380,240.800 311.600 C 240.800 311.822,239.733 312.000,238.400 312.000 C 237.080 312.000,236.000 312.154,236.000 312.342 C 236.000 312.530,234.785 312.797,233.300 312.934 C 230.261 313.216,221.927 315.184,221.562 315.706 C 221.431 315.893,220.891 315.946,220.362 315.823 C 219.833 315.700,218.230 315.875,216.800 316.212 C 215.370 316.549,213.503 316.979,212.651 317.168 C 211.800 317.356,210.947 317.756,210.757 318.055 C 210.477 318.498,210.411 318.501,210.406 318.068 C 210.399 317.449,208.565 317.730,206.566 318.657 C 205.887 318.971,204.627 319.215,203.766 319.198 C 201.407 319.152,199.082 319.619,198.315 320.294 C 197.938 320.626,197.371 320.798,197.054 320.676 C 196.737 320.554,196.145 320.707,195.739 321.015 C 195.332 321.323,194.606 321.580,194.124 321.587 C 193.642 321.594,193.136 321.780,193.000 322.000 C 192.650 322.567,191.378 322.496,190.868 321.882 C 190.375 321.288,190.695 318.871,192.362 310.600 C 192.583 309.500,192.953 307.565,193.182 306.300 C 193.412 305.035,193.778 303.055,193.995 301.900 C 194.213 300.745,194.662 298.360,194.993 296.600 C 195.324 294.840,195.688 292.680,195.801 291.800 C 196.130 289.231,195.381 291.696,194.828 295.000 C 194.570 296.540,194.200 298.520,194.006 299.400 C 193.812 300.280,193.448 302.170,193.196 303.600 C 192.598 307.003,192.170 309.305,191.635 312.000 C 189.319 323.653,189.249 323.387,194.334 322.300 C 196.020 321.939,200.010 321.085,203.200 320.402 C 206.390 319.719,209.810 318.989,210.800 318.781 C 211.790 318.573,214.310 318.039,216.400 317.596 C 218.490 317.152,221.100 316.612,222.200 316.396 C 223.300 316.179,225.010 315.821,226.000 315.600 C 227.676 315.226,229.906 314.772,233.800 314.015 C 243.020 312.220,242.527 312.541,243.360 307.800 C 243.708 305.820,244.282 302.760,244.635 301.000 C 245.929 294.557,249.208 277.733,249.625 275.400 C 249.860 274.080,250.207 272.280,250.394 271.400 C 250.582 270.520,250.944 268.720,251.200 267.400 C 251.456 266.080,251.818 264.280,252.006 263.400 C 252.193 262.520,252.551 260.630,252.800 259.200 C 253.049 257.770,253.409 255.880,253.600 255.000 C 253.791 254.120,254.151 252.230,254.400 250.800 C 254.649 249.370,255.009 247.480,255.200 246.600 C 255.391 245.720,255.739 243.920,255.975 242.600 C 256.210 241.280,256.744 238.400,257.162 236.200 C 257.579 234.000,258.403 229.320,258.993 225.800 C 260.454 217.086,260.211 217.460,264.614 217.135 C 266.586 216.989,270.450 216.666,273.200 216.418 C 275.950 216.169,280.270 215.797,282.800 215.590 C 285.330 215.383,287.921 215.101,288.557 214.963 L 289.715 214.711 289.469 216.856 C 289.278 218.519,289.314 218.779,289.630 218.014 C 290.421 216.102,289.955 214.773,288.295 214.206 C 287.459 213.920,286.694 213.849,286.572 214.046 M288.654 220.754 C 288.500 221.718,288.458 222.591,288.561 222.694 C 288.830 222.963,289.315 220.145,289.107 219.522 C 289.012 219.236,288.808 219.790,288.654 220.754 M287.854 224.754 C 287.700 225.718,287.658 226.591,287.761 226.694 C 288.030 226.963,288.515 224.145,288.307 223.522 C 288.212 223.236,288.008 223.790,287.854 224.754 M287.019 229.127 C 286.855 230.077,286.817 230.950,286.934 231.068 C 287.226 231.359,287.726 228.573,287.500 227.921 C 287.400 227.635,287.184 228.177,287.019 229.127 M286.219 233.127 C 286.055 234.077,286.017 234.950,286.134 235.068 C 286.426 235.359,286.926 232.573,286.700 231.921 C 286.600 231.635,286.384 232.177,286.219 233.127 M285.419 237.127 C 285.255 238.077,285.217 238.950,285.334 239.068 C 285.626 239.359,286.126 236.573,285.900 235.921 C 285.800 235.635,285.584 236.177,285.419 237.127 M284.689 240.400 C 284.536 240.950,284.425 241.850,284.442 242.400 C 284.468 243.261,284.526 243.214,284.858 242.060 C 285.070 241.324,285.181 240.424,285.106 240.060 C 285.008 239.594,284.886 239.693,284.689 240.400 M283.819 245.127 C 283.655 246.077,283.617 246.950,283.734 247.068 C 284.026 247.359,284.526 244.573,284.300 243.921 C 284.200 243.635,283.984 244.177,283.819 245.127 M283.089 248.400 C 282.936 248.950,282.825 249.850,282.842 250.400 C 282.868 251.261,282.926 251.214,283.258 250.060 C 283.470 249.324,283.581 248.424,283.506 248.060 C 283.408 247.594,283.286 247.693,283.089 248.400 M202.619 253.318 C 202.445 254.374,202.404 255.337,202.526 255.459 C 202.836 255.770,203.311 253.042,203.104 252.140 C 203.010 251.733,202.792 252.263,202.619 253.318 M282.038 254.000 C 281.754 255.430,281.359 257.500,281.161 258.600 C 280.962 259.700,280.637 261.410,280.437 262.400 C 280.237 263.390,279.861 265.280,279.600 266.600 C 279.339 267.920,278.979 269.720,278.800 270.600 C 278.488 272.130,277.955 274.914,277.228 278.800 C 277.043 279.790,276.310 283.390,275.598 286.800 C 274.283 293.106,273.971 294.645,273.284 298.200 C 273.072 299.300,272.310 303.049,271.590 306.530 C 269.735 315.512,268.424 314.889,284.800 312.812 C 286.450 312.603,289.600 312.237,291.800 312.000 C 294.000 311.763,297.150 311.404,298.800 311.203 C 300.450 311.003,303.780 310.638,306.200 310.393 C 308.620 310.148,311.770 309.785,313.200 309.586 C 314.630 309.387,317.240 309.115,319.000 308.981 C 323.641 308.627,323.427 308.778,323.950 305.490 C 324.785 300.254,327.200 283.176,327.200 282.515 C 327.200 280.924,326.584 282.705,326.296 285.126 C 325.971 287.865,325.549 290.863,324.792 295.800 C 324.556 297.340,324.273 299.680,324.165 301.000 C 324.056 302.320,323.799 303.760,323.594 304.200 C 323.389 304.640,323.172 305.720,323.111 306.600 L 323.000 308.200 319.200 308.221 C 314.604 308.247,307.600 308.821,307.600 309.171 C 307.600 309.311,306.295 309.475,304.700 309.536 C 303.105 309.597,300.630 309.813,299.200 310.015 C 297.770 310.218,295.421 310.388,293.980 310.392 C 292.539 310.396,291.189 310.564,290.980 310.765 C 290.570 311.159,287.674 311.519,282.601 311.808 C 280.841 311.909,279.131 312.107,278.801 312.249 C 278.470 312.391,277.480 312.650,276.600 312.824 C 275.720 312.997,274.331 313.313,273.514 313.524 C 270.658 314.264,270.511 313.583,272.020 306.600 C 272.210 305.720,272.569 304.010,272.818 302.800 C 273.067 301.590,273.443 299.790,273.654 298.800 C 273.864 297.810,274.184 296.190,274.364 295.200 C 274.812 292.739,276.723 283.366,277.177 281.400 C 277.380 280.520,277.742 278.720,277.981 277.400 C 278.220 276.080,279.409 269.972,280.623 263.828 C 281.837 257.683,282.769 252.373,282.693 252.028 C 282.617 251.682,282.322 252.570,282.038 254.000 M201.903 256.800 C 201.742 257.350,201.620 258.250,201.631 258.800 L 201.651 259.800 202.044 258.815 C 202.260 258.274,202.382 257.374,202.316 256.815 L 202.195 255.800 201.903 256.800 M200.982 262.182 C 200.829 263.202,200.802 264.135,200.922 264.255 C 201.042 264.375,201.265 263.639,201.418 262.618 C 201.571 261.598,201.598 260.665,201.478 260.545 C 201.358 260.425,201.135 261.161,200.982 262.182 M200.297 265.600 C 200.140 266.150,200.025 267.140,200.042 267.800 L 200.072 269.000 200.458 267.658 C 200.671 266.920,200.786 265.930,200.714 265.458 C 200.592 264.654,200.566 264.663,200.297 265.600 M199.489 270.000 C 199.336 270.550,199.225 271.450,199.242 272.000 C 199.268 272.861,199.326 272.814,199.658 271.660 C 199.870 270.924,199.981 270.024,199.906 269.660 C 199.808 269.194,199.686 269.293,199.489 270.000 M328.289 272.000 C 328.024 272.630,327.698 275.372,327.409 279.400 C 327.287 281.096,327.465 280.509,328.015 277.400 C 328.752 273.229,328.887 270.576,328.289 272.000 M198.645 275.000 C 198.478 276.100,198.174 277.522,197.970 278.160 C 197.767 278.798,197.618 279.878,197.640 280.560 C 197.663 281.260,198.016 280.232,198.450 278.200 C 198.874 276.220,199.160 274.240,199.085 273.800 C 199.011 273.360,198.813 273.900,198.645 275.000 M197.045 283.400 C 196.887 284.280,196.587 285.755,196.379 286.677 C 196.171 287.600,196.018 288.770,196.040 289.277 C 196.062 289.785,196.426 288.580,196.848 286.600 C 197.270 284.620,197.552 282.730,197.474 282.400 C 197.395 282.070,197.202 282.520,197.045 283.400 " stroke="none" fill="#9e319e" fill-rule="evenodd"></path></g></svg>